<?xml version="1.0" encoding="utf-8"?>
<!-- Svg Vector Icons : http://www.onlinewebfonts.com/icon -->
<!DOCTYPE svg PUBLIC "-//W3C//DTD SVG 1.1//EN" "http://www.w3.org/Graphics/SVG/1.1/DTD/svg11.dtd">
<svg version="1.1" xmlns="http://www.w3.org/2000/svg" xmlns:xlink="http://www.w3.org/1999/xlink" 
    viewBox="0 0 1000 1000">
    <metadata> Svg Vector Icons : http://www.onlinewebfonts.com/icon </metadata>
    <g>
        <g transform="matrix(1 0 0 -1 0 1920)">
            <path
                d="M112.1,930c-28.3,0-52.4,9.9-72.3,29.8c-19.9,19.9-29.8,44-29.8,72.3v775.8c0,28.3,9.9,52.4,29.8,72.3c19.9,19.9,44,29.8,72.3,29.8h775.8c28.3,0,52.4-9.9,72.3-29.8c19.9-19.9,29.8-44,29.8-72.3v-775.8c0-28.3-9.9-52.4-29.8-72.3c-19.9-19.9-44-29.8-72.3-29.8H112.1z M711.1,1210.1c3,0,4.9,0.1,5.7,0.4l89,1.2c1.6,0,4.2,0.3,7.6,0.8c3.4,0.5,8.2,2.3,14.5,5.3c6.3,3,10.8,7.1,13.5,12.3c1.9,3.5,2.9,7.5,2.9,11.8c0,6.5-2.4,14-7.3,22.5c-11.4,20.7-34.6,47.2-69.4,79.6c-12.3,11.4-20.6,19.8-25.1,25.1c-4.5,5.3-6.7,10.5-6.7,15.7c0,5.4,2.1,11.4,6.3,18c4.2,6.5,12.3,17.4,24.3,32.7c9.8,13.1,17.4,23.1,22.9,30.2c36.5,48.7,54.7,82.8,54.7,102.1c0,3-0.4,5.7-1.2,8.2c-3.8,10.6-15.2,15.9-34.3,15.9c-5.4,0-8.6-0.1-9.4-0.4l-102.5-0.4c-5.7,0-10.6-1.2-14.7-3.7c-5.2-3-9.3-7.9-12.3-14.7c-12.3-31-24.5-56.9-36.8-77.6c-7.1-12-13.7-22.5-19.8-31.6c-6.1-9.1-11.2-16.1-15.3-21c-4.1-4.9-7.8-8.9-11.2-12s-6-5.2-7.8-6.3c-1.8-1.1-3.3-1.6-4.7-1.6c-6.3,4.1-9.4,15.9-9.4,35.5v13.1l0.4,12.3c0,11.7,0.4,26.4,1.2,44.1c0.3,11.7,0.4,20,0.4,24.9c0,15.5-2,27.3-5.9,35.3c-3.9,8-11.9,13.5-23.9,16.5c-12.5,3-28.9,4.6-49,4.9h-14.3c-35.7,0-59.9-3.1-72.7-9.4c-5.7-2.7-10.8-6.7-15.3-12c-4.5-5.3-6.3-10.4-5.5-15.3l2-4.1l4.1-2.5l2-0.4c11.4-1.4,19.6-5.3,24.5-11.8c5.4-7.4,8.2-21.1,8.2-41.2c0.5-9,0.8-17.8,0.8-26.5c0-17.1-1.1-31.6-3.3-43.5c-2.2-11.8-5.4-18.7-9.8-20.6c-10.3,0-29.9,24.8-58.8,74.3c-12.3,21.8-24.1,46.4-35.5,73.9c-2.7,6.3-6.4,11.2-11,14.7c-6.3,4.4-12.9,6.9-20,7.8l-96-0.8c-12,0-20.6-3.1-25.7-9.4c-2.7-3.3-4.1-7.5-4.1-12.7c0-4.4,0.8-8.7,2.5-13.1c2.2-5.4,5.1-12.2,8.8-20.2c3.7-8,11.4-24,23.3-47.8c11.8-23.8,23.8-46.2,35.7-67.2c12-21,26.5-43.9,43.7-68.8c17.2-24.9,33.8-45.7,49.8-62.3c13.3-13.9,27.6-25.9,42.9-36.1s29-17.9,41.2-23.1c12.3-5.2,24.8-9.3,37.8-12.5c12.9-3.1,22.9-5,30-5.7c7.1-0.7,13.7-1,20-1h41.7c10.1,1.4,17.8,4.9,23.3,10.6c5.2,5.4,7.8,13.1,7.8,22.9c0,3,0.1,6.3,0.4,10c0.3,3.7,0.8,8,1.6,13.1c0.8,5,2,9.6,3.5,13.7c1.5,4.1,3.5,7.8,6.1,11.2c2.6,3.4,5.5,5.5,8.8,6.3c3.3,0,7.4-2,12.5-5.9c5-3.9,9.3-7.9,12.9-11.8c3.5-3.9,8.6-9.6,15.1-16.9c17.4-19.9,30.8-32.9,40-39.2C681.6,1215.3,696.4,1210.1,711.1,1210.1z" />
        </g>
    </g>
</svg>